<?xml version="1.0" encoding="UTF-8"?>
<svg id="Layer_1" data-name="Layer 1" xmlns="http://www.w3.org/2000/svg" viewBox="0 0 612 792">
  <defs>
    <style>
      .cls-1 {
        stroke-width: .5px;
      }

      .cls-1, .cls-2 {
        fill: #4f4f51;
      }

      .cls-1, .cls-2, .cls-3 {
        stroke: #414042;
        stroke-miterlimit: 10;
      }

      .cls-2 {
        stroke-width: .75px;
      }

      .cls-4 {
        fill: #231f20;
      }

      .cls-3 {
        fill: none;
      }
    </style>
  </defs>
  <g id="Artboard_2" data-name="Artboard 2">
    <path class="cls-4" d="M300.9,359.05l.09-.07,168.42-160.45,2.26-30.74-331.83,202.48.15,90.98,294.37-251.03L140.36,488.7c0,3.28,7.3,6.17,10.58,6.17l314.75.44c3.28,0,5.95-2.66,5.95-5.95v-34.48l.53-224.63c-45.94,31.28-110.95,81.15-171.27,128.79ZM404.01,449.24c-17.9,0-32.39-14.51-32.39-32.41s14.49-32.39,32.39-32.39,32.41,14.49,32.41,32.39-14.51,32.41-32.41,32.41Z"/>
    <path class="cls-3" d="M437.46,416.83c0,17.9-14.51,32.41-32.41,32.41s-32.39-14.51-32.39-32.41,14.49-32.39,32.39-32.39,32.41,14.49,32.41,32.39Z"/>
    <circle id="Y" class="cls-1" cx="279.06" cy="416.84" r="13.59"/>
    <circle id="X" class="cls-1" cx="306.25" cy="396.35" r="13.59"/>
    <circle id="B" class="cls-1" cx="309.6" cy="430.43" r="13.59"/>
    <circle id="A" class="cls-1" cx="282.42" cy="449.98" r="13.59"/>
    <g id="Move_Button" data-name="Move Button">
      <path id="Move_Button-2" data-name="Move Button" class="cls-2" d="M439.6,414.71v2.81c0,4.35-3.56,7.92-7.92,7.92h-13.31c-2.68,0-4.85,2.17-4.85,4.85v10.16c-.01,3.8.93,8.43-6.29,10.7l-2.44.37c-1.67,0-5.54-.59-7.24-2.27-2.44-2.42-2.36-4.63-2.67-9.35v-9.61c0-2.68-2.17-4.85-4.85-4.85h-13.31c-4.35,0-7.92-3.56-7.92-7.92v-2.81c0-4.35,3.56-7.92,7.92-7.92h13.31c2.68,0,4.85-2.17,4.85-4.85v-13.31c0-4.35,3.56-7.92,7.92-7.92h2.81c4.35,0,7.92,3.56,7.92,7.92v13.31c0,2.68,2.17,4.85,4.85,4.85h13.31c4.35,0,7.92,3.56,7.92,7.92Z"/>
    </g>
  </g>
</svg>